<svg xmlns="http://www.w3.org/2000/svg" version="1.2" baseProfile="tiny" width="477.6" height="240.5" viewBox="-56.199999999999996 -29 477.59999999999997 240.5" fill="none" stroke="black" stroke-width="4" font-family="Arial">
    <path d="M25,50 l150,0 0,100 -150,0 z" transform="translate(30 18)" fill="rgb(128,224,255)" fill-opacity="1" stroke="black" stroke-width="4"></path>
    <path d="M25,50 l150,0 0,100 -150,0 z" transform="translate(20 12)" fill="rgb(128,224,255)" fill-opacity="1" stroke="black" stroke-width="4"></path>
    <path d="M25,50 l150,0 0,100 -150,0 z" transform="translate(10 6)" fill="rgb(128,224,255)" fill-opacity="1" stroke="black" stroke-width="4"></path>
    <path d="M25,50 l150,0 0,100 -150,0 z" fill="rgb(128,224,255)" fill-opacity="1" stroke="black" stroke-width="4"></path>
    <text x="215" y="60" font-family="Arial" font-size="35" font-weight="bold" text-anchor="start" stroke-width="0" fill="black">
        X
    </text>
    <g transform="translate(-52.199999999999996,27.5)" font-family="Arial" fill="black" font-size="36" stroke-width="0" text-anchor="end">
        <text x="61.199999999999996" y="36">
            W
        </text>
        <text x="61.199999999999996" y="72">
            X/Y
        </text>
        <text x="61.199999999999996" y="108">
            V
        </text>
        <text x="61.199999999999996" y="144">
            T
        </text>
        <text x="61.199999999999996" y="180">
            Z
        </text>
    </g>
    <g transform="translate(253,27.5)" font-family="Arial" fill="black" font-size="36" stroke-width="0" text-anchor="start">
        <text x="0" y="36">
            F
        </text>
        <text x="0" y="72">
            G
        </text>
        <text x="0" y="108">
            H
        </text>
        <text x="0" y="144">
            M
        </text>
        <text x="0" y="180">
            J/K/L/N/P
        </text>
    </g>
    <g fill="black" stroke="black" stroke-width="4" transform="translate(0, 50)">
        <circle cx="100" cy="-20" r="7.5"></circle>
        <circle cx="70" cy="-20" r="7.5"></circle>
        <circle cx="130" cy="-20" r="7.5"></circle>
    </g>
    <g transform="translate(0, 50)">
        <path d="M55,0 L55,-40 145,-40 145,0"></path>
    </g>
    <path d="M100,-25 L25,50 M100,-25 L175,50" stroke-dasharray="8 8"></path>
</svg>