<svg xmlns="http://www.w3.org/2000/svg" version="1.2" baseProfile="tiny" width="314.2415063144173" height="188" viewBox="-132.39729618517111 8.25 314.2415063144173 188" fill="none" stroke="black" stroke-width="4" font-family="Arial">
    <path d="M 65,150 c -55,0 -50,-90 0,-90 0,-50 70,-50 70,0 50,0 55,90 0,90" fill="rgb(255,255,128)" fill-opacity="1" stroke="black" stroke-width="4"></path>
    <path stroke="none" fill="black" d="m 99.2,58.2 c -3,0.8 -2.5,5.8 -2.5,5.8 l -0.3,16 -37.2,36.5 1.3,4.6 L 96.7,96.6 97,128.6 l -8.5,8.2 0,4.6 9.3,-4.2 c 0.7,0.6 1.8,1.7 1.8,1.7 0,0 1.2,-1.1 1.9,-1.7 l 9.3,4.2 0,-4.6 -8.5,-8.2 0.3,-32 36.2,24.5 1.3,-4.6 -37.2,-36.5 -0.3,-16 c 0,0 0.5,-5 -2.5,-5.8 -0.4,-0.1 -0.7,-0.1 -1.1,0 z"></path>
    <g transform="translate(-128.39729618517111,12.25)" font-family="Arial" fill="black" font-size="36" stroke-width="0" text-anchor="end">
        <text x="138" y="36"></text>
        <text x="138" y="72"></text>
        <text x="138" y="108"></text>
        <text x="138" y="144"></text>
        <text x="138" y="180">
            25 km/h
        </text>
    </g>
    <g transform="matrix(-0.4999999999999998 0.8660254037844387 -0.8660254037844387 -0.4999999999999998 100 100)">
        <path d="M0,0 l0,-75 -5,3 5,-15 5,15 -5,-3" fill="black" stroke="black" stroke-width="4"></path>
    </g>
</svg>