<svg xmlns="http://www.w3.org/2000/svg" version="1.2" baseProfile="tiny" width="420.79999999999995" height="189" viewBox="-134.6 26 420.79999999999995 189" fill="none" stroke="black" stroke-width="4" font-family="Arial">
    <path d="M 155,150 C 155,50 115,30 100,30 85,30 45,50 45,150" fill="rgb(128,224,255)" fill-opacity="1" stroke="black" stroke-width="4"></path>
    <path d="M45,155 l110,0 0,25 -110,0 z" fill="rgb(0,255,0)" stroke="black" stroke-width="4"></path>
    <path stroke="none" fill="black" d="m 60,84 40,20 40,-20 0,8 -40,25 -40,-25 z"></path>
    <text stroke="none" fill="black" x="100" y="77" text-anchor="middle" font-weight="bold" font-size="30">
        R
    </text>
    <text x="165" y="60" font-family="Arial" font-size="35" font-weight="bold" text-anchor="start" stroke-width="0" fill="black">
        X
    </text>
    <g transform="translate(-130.6,31)" font-family="Arial" fill="black" font-size="36" stroke-width="0" text-anchor="end">
        <text x="159.6" y="36">
            DTG
        </text>
        <text x="159.6" y="72"></text>
        <text x="159.6" y="108"></text>
        <text x="159.6" y="144">
            ALPHA-1
        </text>
        <text x="159.6" y="180"></text>
    </g>
    <g transform="translate(203,31)" font-family="Arial" fill="black" font-size="36" stroke-width="0" text-anchor="start">
        <text x="0" y="36">
            +/-
        </text>
        <text x="0" y="72">
            CMT
        </text>
        <text x="0" y="108"></text>
        <text x="0" y="144"></text>
        <text x="0" y="180"></text>
    </g>
    <g transform="matrix(0.17364817766692997 -0.9848077530122081 0.9848077530122081 0.17364817766692997 100 100)">
        <path d="M0,0 l0,-75 -5,3 5,-15 5,15 -5,-3" fill="black" stroke="black" stroke-width="4"></path>
    </g>
</svg>