<svg xmlns="http://www.w3.org/2000/svg" version="1.2" baseProfile="tiny" width="551.2" height="350.1698729810778" viewBox="-160.6 -57 551.2 350.1698729810778" fill="none" stroke="black" stroke-width="4" font-family="Arial">
    <path d="M25,50 l150,0 0,100 -150,0 z" fill="rgb(128,224,255)" fill-opacity="1" stroke="black" stroke-width="4"></path>
    <path stroke="stroke:path/icon" fill="black" d="M25,50 L175,150 M25,150 L175,50"></path>
    <path stroke="stroke:path/icon" fill="none" d="M125,80 C150,80 150,120 125,120 L75,120 C50,120 50,80 75,80 Z"></path>
    <g transform="translate(-156.6,26)" font-family="Arial" fill="black" font-size="36" stroke-width="0" text-anchor="end">
        <text x="165.6" y="36">
            O/O
        </text>
        <text x="165.6" y="72"></text>
        <text x="165.6" y="108"></text>
        <text x="165.6" y="144">
            TANGO-1
        </text>
        <text x="165.6" y="180">
            25 km/h
        </text>
    </g>
    <g transform="translate(191,26)" font-family="Arial" fill="black" font-size="36" stroke-width="0" text-anchor="start">
        <text x="0" y="36">
            +/-
        </text>
        <text x="0" y="72">
            beer@1600
        </text>
        <text x="0" y="108"></text>
        <text x="0" y="144">
            B
        </text>
        <text x="0" y="180"></text>
    </g>
    <path d="M25,155 l150,0 0,25 -150,0 z" fill="rgb(0,255,0)" stroke="black" stroke-width="4"></path>
    <g fill="black" stroke="black" stroke-width="4" transform="translate(0, 50)">
        <path d="M87.5,-10 l25,-25 m0,25 l-25,-25"></path>
    </g>
    <g transform="translate(0, 50)">
        <path d="M55,0 L55,-40 145,-40 145,0"></path>
    </g>
    <path d="M100,-25 L25,50 M100,-25 L175,50" stroke-dasharray="8 8"></path>
    <path d="M25,150 L25,250"></path>
    <g transform="matrix(-0.4999999999999998 0.8660254037844387 -0.8660254037844387 -0.4999999999999998 25 250)">
        <path d="M0,0 l0,-75 -5,3 5,-15 5,15 -5,-3" fill="black" stroke="black" stroke-width="4"></path>
    </g>
    <path d="M23.75,-28 l152.5,0 0,-25 -152.5,0 z" fill="rgb(128,224,255)"></path>
    <text x="100" y="-33" text-anchor="middle" font-size="22" font-weight="bold" stroke-width="4" stroke="none" fill="black">
        A:BBB-CC
    </text>
</svg>