<svg xmlns="http://www.w3.org/2000/svg" width="314.242" height="188" fill="none" stroke="#000" stroke-width="4" baseProfile="tiny" font-family="Arial" version="1.2" viewBox="-132.397 8.25 314.242 188"><path fill="#FFFF80" d="M65 150c-55 0-50-90 0-90 0-50 70-50 70 0 50 0 55 90 0 90"/><path fill="#000" stroke="none" d="M99.2 58.2c-3 .8-2.5 5.8-2.5 5.8l-.3 16-37.2 36.5 1.3 4.6 36.2-24.5.3 32-8.5 8.2v4.6l9.3-4.2c.7.6 1.8 1.7 1.8 1.7s1.2-1.1 1.9-1.7l9.3 4.2v-4.6l-8.5-8.2.3-32 36.2 24.5 1.3-4.6L102.9 80l-.3-16s.5-5-2.5-5.8c-.4-.1-.7-.1-1.1 0z"/><text x="138" y="180" fill="#000" stroke-width="0" font-size="36" text-anchor="end" transform="translate(-128.397 12.25)">
            25 km/h
        </text><path fill="#000" d="m100 100 64.952 37.5-.098-5.83 10.49 11.83-15.49-3.17 5.098-2.83"/></svg>